:SAMPLES-PER-SECOND 30
:FRAME-RANGE 1-663
:FULLY-SPECIFIED
:DEGREES
643
root  26.1411 39.9992 -128.319 0.268921 -61.1785 2.23586
RightUpLeg  -4.34308 -18.597 -10.7334
RightLeg  -4.91325 -64.1536 15.9876
RightFoot  -0.927205 0.0161596 -0.246477
RightToes  2.91037e-010 0 -3.6325e-017
Spine  8.12756 -1.31833 -0.853141
Spine1  1.57412 -1.54284 0.85291
HEad  0.28283 19.1193 -9.2691
LeftShoulder1  1.54744 -0.859798 -29.3945
LeftArm  18.9174 6.13504 -40.9076
LeftForeArm  18.531 -36.3856 -7.14813
LeftHand  0.0169389 -5.88312 0.154216
RightShoulder  4.19059 4.74717 44.4237
RightArm  54.5838 -16.346 19.6906
RightForeArm  -22.3896 22.5677 6.61701
RightHand  0.145064 2.02075 2.10384
LeftUpLeg  -1.33756 37.1683 16.6243
LeftLeg  14.5979 20.0098 3.48527
LeftFoot  -4.84723 0.311568 -4.97804
LeftToes  -4.9116e-011 5.71383e-011 -3.31847e-011
644
root  27.0379 39.9422 -127.603 1.17477 -53.3326 1.02354
RightUpLeg  -3.50626 -18.7953 -12.5108
RightLeg  -4.60488 -59.8761 14.4018
RightFoot  -0.018533 -0.254807 2.5678
RightToes  2.91037e-010 0 -3.6325e-017
Spine  7.61844 -1.68188 0.0338941
Spine1  2.02339 -1.79562 0.472841
HEad  0.788177 19.0415 -8.68091
LeftShoulder1  1.58052 -1.03126 -28.773
LeftArm  19.2053 4.11863 -42.5867
LeftForeArm  19.0701 -36.8345 -7.24101
LeftHand  0.0288628 -5.77286 0.0255887
RightShoulder  3.91482 4.16739 44.6534
RightArm  56.2309 -17.5293 19.2094
RightForeArm  -21.7601 22.6199 6.55558
RightHand  0.159738 2.15532 2.28066
LeftUpLeg  -1.47304 34.0178 16.6874
LeftLeg  12.391 29.304 1.98404
LeftFoot  -2.71418 0.314569 -3.95413
LeftToes  -4.9116e-011 5.71383e-011 -3.31847e-011
645
root  28.0772 39.7187 -126.749 1.70677 -45.0522 -0.0104065
RightUpLeg  -3.21814 -19.5566 -14.7677
RightLeg  0.246772 -53.4336 9.14933
RightFoot  0.260324 -0.704449 6.94279
RightToes  2.91037e-010 0 -3.6325e-017
Spine  7.06083 -2.14555 0.662988
Spine1  2.61408 -2.51782 1.79334
HEad  1.37804 18.3586 -8.15102
LeftShoulder1  1.57936 -0.97815 -29.1675
LeftArm  19.9294 1.60684 -44.1097
LeftForeArm  19.0734 -37.278 -7.36674
LeftHand  0.131655 -5.65584 -1.06065
RightShoulder  3.63713 3.80412 43.499
RightArm  57.0986 -18.7002 19.3358
RightForeArm  -19.3373 22.1825 6.7106
RightHand  0.194282 2.5979 2.62028
LeftUpLeg  -2.49462 28.2231 15.2977
LeftLeg  9.65891 30.8198 0.0438137
LeftFoot  3.64045 1.00413 -7.79728
LeftToes  -4.9116e-011 5.71383e-011 -3.31847e-011
646
root  29.0141 39.7707 -125.981 0.655945 -37.0961 0.91185
RightUpLeg  -0.951702 -19.6507 -17.7723
RightLeg  -0.777839 -44.3107 7.99721
RightFoot  0.693139 -1.03689 9.85889
RightToes  2.91037e-010 0 -3.6325e-017
Spine  6.98547 -2.20656 -1.60507
Spine1  2.80239 -2.94263 2.53148
HEad  1.62624 16.3017 -7.38335
LeftShoulder1  1.60426 -1.0336 -29.2886
LeftArm  21.4544 -0.918322 -45.9149
LeftForeArm  19.0218 -37.7119 -7.49472
LeftHand  0.143658 -5.53917 -1.20622
RightShoulder  3.32846 3.20892 43.3378
RightArm  59.7673 -19.4366 18.0546
RightForeArm  -18.7536 22.5696 6.42946
RightHand  0.263017 3.2047 3.317
LeftUpLeg  -4.35165 26.0085 12.2293
LeftLeg  9.84678 25.7886 -2.06104
LeftFoot  1.24088 0.868547 -7.93915
LeftToes  -4.9116e-011 5.71383e-011 -3.31847e-011
647
root  29.9385 39.742 -125.267 -0.498764 -29.7713 2.27078
RightUpLeg  -1.29745 -18.2681 -19.6191
RightLeg  3.27394 -30.2846 2.05496
RightFoot  -3.10843 -0.914822 12.3707
RightToes  2.91037e-010 0 -3.6325e-017
Spine  8.06317 -1.86483 -3.99097
Spine1  1.99586 -3.02909 3.89214
HEad  2.16606 13.491 -6.17304
LeftShoulder1  1.66727 -1.11254 -30.0622
LeftArm  24.1473 -3.97654 -46.5948
LeftForeArm  17.4311 -37.5367 -7.54314
LeftHand  0.173248 -5.46718 -1.53468
RightShoulder  3.04647 2.50979 44.3427
RightArm  58.5478 -19.1308 17.1844
RightForeArm  -16.4962 20.4664 8.21463
RightHand  0.267745 3.39977 3.29112
LeftUpLeg  -6.51006 25.202 7.63587
LeftLeg  11.2165 19.6771 -1.57814
LeftFoot  -0.649833 0.614702 -6.52442
LeftToes  -4.9116e-011 5.71383e-011 -3.31847e-011
